<svg xmlns="http://www.w3.org/2000/svg" width="62.269" height="62.255" viewBox="0 0 62.269 62.255">
  <path id="Icon_awesome-instagram" data-name="Icon awesome-instagram" d="M31.136,17.4A15.961,15.961,0,1,0,47.1,33.365,15.936,15.936,0,0,0,31.136,17.4Zm0,26.339A10.377,10.377,0,1,1,41.513,33.365,10.4,10.4,0,0,1,31.136,43.742ZM51.474,16.751a3.723,3.723,0,1,1-3.723-3.723A3.714,3.714,0,0,1,51.474,16.751Zm10.572,3.779c-.236-4.987-1.375-9.4-5.029-13.044S48.959,2.707,43.972,2.456c-5.14-.292-20.546-.292-25.686,0C13.313,2.693,8.9,3.832,5.242,7.471S.464,15.529.214,20.516c-.292,5.14-.292,20.546,0,25.686.236,4.987,1.375,9.4,5.029,13.044s8.057,4.779,13.044,5.029c5.14.292,20.546.292,25.686,0,4.987-.236,9.4-1.375,13.044-5.029S61.8,51.188,62.045,46.2c.292-5.14.292-20.532,0-25.672ZM55.4,51.716a10.506,10.506,0,0,1-5.918,5.918c-4.1,1.625-13.822,1.25-18.351,1.25s-14.267.361-18.351-1.25a10.506,10.506,0,0,1-5.918-5.918c-1.625-4.1-1.25-13.822-1.25-18.351S5.256,19.1,6.868,15.015A10.506,10.506,0,0,1,12.785,9.1c4.1-1.625,13.822-1.25,18.351-1.25S45.4,7.485,49.487,9.1A10.506,10.506,0,0,1,55.4,15.015c1.625,4.1,1.25,13.822,1.25,18.351S57.03,47.632,55.4,51.716Z" transform="translate(0.005 -2.238)" fill="#fff"/>
</svg>
